M48
INCH,TZ
T1C0.030
T2C0.031
T3C0.039
T4C0.040
T5C0.041
T6C0.043
T7C0.079
%
G90
G05
T1
X32453Y-49516
X32453Y-50343
X32453Y-51169
X32453Y-51996
T2
X35630Y-43587
X35630Y-44587
X35630Y-45587
X35630Y-46587
X35630Y-47587
X35630Y-48587
X35630Y-49587
X35630Y-50587
X35630Y-51587
X35630Y-52587
X35630Y-53587
X35630Y-54587
X35630Y-55587
X35630Y-56587
X38630Y-43587
X38630Y-44587
X38630Y-45587
X38630Y-46587
X38630Y-47587
X38630Y-48587
X38630Y-49587
X38630Y-50587
X38630Y-51587
X38630Y-52587
X38630Y-53587
X38630Y-54587
X38630Y-55587
X38630Y-56587
T3
X33327Y-43520
X33327Y-44520
T4
X41614Y-50854
X41614Y-51854
X41614Y-52854
X41614Y-53854
X41614Y-54854
X42614Y-50854
X42614Y-51854
X42614Y-52854
X42614Y-53854
X42614Y-54854
T5
X30469Y-40614
X32469Y-40614
X49028Y-51209
X49028Y-53209
X49094Y-55276
X49094Y-57276
T6
X43303Y-43413
X43303Y-44398
X43303Y-45382
X49012Y-43413
X49012Y-45382
T7
X46256Y-42665
X46256Y-46130
T0
M30
