G04 #@! TF.FileFunction,Copper,L2,Bot,Signal*
%FSLAX46Y46*%
G04 Gerber Fmt 4.6, Leading zero omitted, Abs format (unit mm)*
G04 Created by KiCad (PCBNEW 4.0.0-rc1-stable) date 2/17/2016 9:04:39 PM*
%MOMM*%
G01*
G04 APERTURE LIST*
%ADD10C,0.100000*%
%ADD11R,1.727200X1.727200*%
%ADD12O,1.727200X1.727200*%
%ADD13R,2.000000X2.000000*%
%ADD14C,2.000000*%
%ADD15O,1.905000X1.117600*%
%ADD16R,1.905000X1.117600*%
%ADD17C,1.524000*%
%ADD18R,2.500000X2.500000*%
%ADD19O,2.300000X1.600000*%
%ADD20R,1.700000X2.000000*%
%ADD21R,2.000000X1.700000*%
%ADD22R,1.198880X2.598420*%
%ADD23R,1.198880X2.600960*%
%ADD24C,0.250000*%
%ADD25C,0.254000*%
G04 APERTURE END LIST*
D10*
D11*
X191770000Y-135890000D03*
D12*
X191770000Y-138430000D03*
X189230000Y-135890000D03*
X189230000Y-138430000D03*
X186690000Y-135890000D03*
X186690000Y-138430000D03*
X184150000Y-135890000D03*
X184150000Y-138430000D03*
X181610000Y-135890000D03*
X181610000Y-138430000D03*
D13*
X142240000Y-113030000D03*
D14*
X142240000Y-110490000D03*
D15*
X140040000Y-133360000D03*
D16*
X140040000Y-134630000D03*
D15*
X140040000Y-135900000D03*
X140040000Y-137170000D03*
D17*
X196230000Y-118070000D03*
X196230000Y-113070000D03*
X181730000Y-115570000D03*
X181730000Y-118070000D03*
X181730000Y-113070000D03*
D18*
X189230000Y-119970000D03*
X189230000Y-111170000D03*
D19*
X156714524Y-110485000D03*
X156714524Y-113025000D03*
X156714524Y-115565000D03*
X156714524Y-118105000D03*
X156714524Y-120645000D03*
X156714524Y-123185000D03*
X156714524Y-125725000D03*
X156714524Y-128265000D03*
X156714524Y-130805000D03*
X156714524Y-133345000D03*
X156714524Y-135885000D03*
X156714524Y-138425000D03*
X156714524Y-140965000D03*
X156714524Y-143505000D03*
X171954524Y-143505000D03*
X171954524Y-140965000D03*
X171954524Y-138425000D03*
X171954524Y-135885000D03*
X171954524Y-133345000D03*
X171954524Y-130805000D03*
X171954524Y-128265000D03*
X171954524Y-125725000D03*
X171954524Y-123185000D03*
X171954524Y-120645000D03*
X171954524Y-118105000D03*
X171954524Y-115565000D03*
X171954524Y-113025000D03*
X171954524Y-110485000D03*
D20*
X142240000Y-122650000D03*
X142240000Y-118650000D03*
D21*
X194850000Y-129540000D03*
X198850000Y-129540000D03*
X189960000Y-125730000D03*
X185960000Y-125730000D03*
D20*
X177800000Y-122650000D03*
X177800000Y-118650000D03*
D21*
X149130000Y-139700000D03*
X153130000Y-139700000D03*
X149130000Y-135890000D03*
X153130000Y-135890000D03*
X149130000Y-120650000D03*
X153130000Y-120650000D03*
D14*
X135850000Y-115570000D03*
X135850000Y-110490000D03*
D22*
X163830000Y-123428760D03*
D23*
X163830000Y-128031240D03*
D24*
X191770000Y-135890000D02*
X191770000Y-128270000D01*
X178309524Y-144780000D02*
X171954524Y-138425000D01*
X196850000Y-144780000D02*
X178309524Y-144780000D01*
X199390000Y-142240000D02*
X196850000Y-144780000D01*
X199390000Y-134620000D02*
X199390000Y-142240000D01*
X196850000Y-132080000D02*
X199390000Y-134620000D01*
X196850000Y-127000000D02*
X196850000Y-132080000D01*
X193040000Y-127000000D02*
X196850000Y-127000000D01*
X191770000Y-128270000D02*
X193040000Y-127000000D01*
X156714524Y-125725000D02*
X165095000Y-125725000D01*
X167640000Y-128270000D02*
X171949524Y-128270000D01*
X165095000Y-125725000D02*
X167640000Y-128270000D01*
X171949524Y-128270000D02*
X171954524Y-128265000D01*
X171954524Y-130805000D02*
X171954524Y-128265000D01*
X142240000Y-110490000D02*
X146050000Y-110490000D01*
X151135000Y-125725000D02*
X156714524Y-125725000D01*
X151130000Y-125730000D02*
X151135000Y-125725000D01*
X151130000Y-115570000D02*
X151130000Y-125730000D01*
X146050000Y-110490000D02*
X151130000Y-115570000D01*
X191770000Y-138430000D02*
X195580000Y-138430000D01*
X194850000Y-137700000D02*
X194850000Y-129540000D01*
X195580000Y-138430000D02*
X194850000Y-137700000D01*
X186690000Y-135890000D02*
X181610000Y-130810000D01*
X181610000Y-130810000D02*
X171959524Y-130810000D01*
X171959524Y-130810000D02*
X171954524Y-130805000D01*
X142240000Y-110490000D02*
X135850000Y-110490000D01*
X184150000Y-135890000D02*
X181610000Y-133350000D01*
X181610000Y-133350000D02*
X171959524Y-133350000D01*
X171959524Y-133350000D02*
X171954524Y-133345000D01*
X142240000Y-113030000D02*
X142240000Y-118650000D01*
X149130000Y-120650000D02*
X149130000Y-124270000D01*
X149130000Y-124270000D02*
X140040000Y-133360000D01*
X149130000Y-139700000D02*
X136790000Y-139700000D01*
X137970000Y-135900000D02*
X140040000Y-135900000D01*
X136710000Y-137160000D02*
X137970000Y-135900000D01*
X136710000Y-139620000D02*
X136710000Y-137160000D01*
X136790000Y-139700000D02*
X136710000Y-139620000D01*
X140040000Y-137170000D02*
X147850000Y-137170000D01*
X147850000Y-137170000D02*
X149130000Y-135890000D01*
X196230000Y-118070000D02*
X196230000Y-119460000D01*
X196230000Y-119460000D02*
X189960000Y-125730000D01*
X196230000Y-113070000D02*
X196230000Y-109870000D01*
X173219524Y-109220000D02*
X171954524Y-110485000D01*
X195580000Y-109220000D02*
X173219524Y-109220000D01*
X196230000Y-109870000D02*
X195580000Y-109220000D01*
X181730000Y-115570000D02*
X180880000Y-115570000D01*
X180880000Y-115570000D02*
X177800000Y-118650000D01*
X171954524Y-123185000D02*
X172725000Y-123185000D01*
X172725000Y-123185000D02*
X175260000Y-120650000D01*
X175260000Y-120650000D02*
X179150000Y-120650000D01*
X179150000Y-120650000D02*
X181730000Y-118070000D01*
X181730000Y-113070000D02*
X179529524Y-113070000D01*
X179529524Y-113070000D02*
X171954524Y-120645000D01*
X160020000Y-106680000D02*
X160020000Y-107179524D01*
X198850000Y-107410000D02*
X198120000Y-106680000D01*
X198120000Y-106680000D02*
X160020000Y-106680000D01*
X198850000Y-129540000D02*
X198850000Y-107410000D01*
X160020000Y-107179524D02*
X156714524Y-110485000D01*
X156714524Y-120645000D02*
X153135000Y-120645000D01*
X153135000Y-120645000D02*
X153130000Y-120650000D01*
X156714524Y-135885000D02*
X153135000Y-135885000D01*
X153135000Y-135885000D02*
X153130000Y-135890000D01*
X156714524Y-138425000D02*
X154405000Y-138425000D01*
X154405000Y-138425000D02*
X153130000Y-139700000D01*
X181610000Y-135890000D02*
X171959524Y-135890000D01*
X171959524Y-135890000D02*
X171954524Y-135885000D01*
D25*
G36*
X201220000Y-147880000D02*
X133477000Y-147880000D01*
X133477000Y-137160000D01*
X135950000Y-137160000D01*
X135950000Y-139620000D01*
X136007852Y-139910839D01*
X136172599Y-140157401D01*
X136252599Y-140237401D01*
X136499161Y-140402148D01*
X136790000Y-140460000D01*
X147482560Y-140460000D01*
X147482560Y-140550000D01*
X147526838Y-140785317D01*
X147665910Y-141001441D01*
X147878110Y-141146431D01*
X148130000Y-141197440D01*
X150130000Y-141197440D01*
X150365317Y-141153162D01*
X150581441Y-141014090D01*
X150726431Y-140801890D01*
X150777440Y-140550000D01*
X150777440Y-138850000D01*
X150733162Y-138614683D01*
X150594090Y-138398559D01*
X150381890Y-138253569D01*
X150130000Y-138202560D01*
X148130000Y-138202560D01*
X147894683Y-138246838D01*
X147678559Y-138385910D01*
X147533569Y-138598110D01*
X147482560Y-138850000D01*
X147482560Y-138940000D01*
X137470000Y-138940000D01*
X137470000Y-137474802D01*
X138284802Y-136660000D01*
X138547788Y-136660000D01*
X138512272Y-136713153D01*
X138421399Y-137170000D01*
X138512272Y-137626847D01*
X138771055Y-138014144D01*
X139158352Y-138272927D01*
X139615199Y-138363800D01*
X140464801Y-138363800D01*
X140921648Y-138272927D01*
X141308945Y-138014144D01*
X141365168Y-137930000D01*
X147850000Y-137930000D01*
X148140839Y-137872148D01*
X148387401Y-137707401D01*
X148707362Y-137387440D01*
X150130000Y-137387440D01*
X150365317Y-137343162D01*
X150581441Y-137204090D01*
X150726431Y-136991890D01*
X150777440Y-136740000D01*
X150777440Y-135040000D01*
X151482560Y-135040000D01*
X151482560Y-136740000D01*
X151526838Y-136975317D01*
X151665910Y-137191441D01*
X151878110Y-137336431D01*
X152130000Y-137387440D01*
X154130000Y-137387440D01*
X154365317Y-137343162D01*
X154581441Y-137204090D01*
X154726431Y-136991890D01*
X154777440Y-136740000D01*
X154777440Y-136645000D01*
X155144672Y-136645000D01*
X155314856Y-136899698D01*
X155696942Y-137155000D01*
X155314856Y-137410302D01*
X155144672Y-137665000D01*
X154405000Y-137665000D01*
X154114160Y-137722852D01*
X153867599Y-137887599D01*
X153552638Y-138202560D01*
X152130000Y-138202560D01*
X151894683Y-138246838D01*
X151678559Y-138385910D01*
X151533569Y-138598110D01*
X151482560Y-138850000D01*
X151482560Y-140550000D01*
X151526838Y-140785317D01*
X151665910Y-141001441D01*
X151878110Y-141146431D01*
X152130000Y-141197440D01*
X154130000Y-141197440D01*
X154365317Y-141153162D01*
X154581441Y-141014090D01*
X154726431Y-140801890D01*
X154777440Y-140550000D01*
X154777440Y-139185000D01*
X155144672Y-139185000D01*
X155314856Y-139439698D01*
X155696942Y-139695000D01*
X155314856Y-139950302D01*
X155003787Y-140415849D01*
X154894554Y-140965000D01*
X155003787Y-141514151D01*
X155314856Y-141979698D01*
X155696942Y-142235000D01*
X155314856Y-142490302D01*
X155003787Y-142955849D01*
X154894554Y-143505000D01*
X155003787Y-144054151D01*
X155314856Y-144519698D01*
X155780403Y-144830767D01*
X156329554Y-144940000D01*
X157099494Y-144940000D01*
X157648645Y-144830767D01*
X158114192Y-144519698D01*
X158425261Y-144054151D01*
X158534494Y-143505000D01*
X158425261Y-142955849D01*
X158114192Y-142490302D01*
X157732106Y-142235000D01*
X158114192Y-141979698D01*
X158425261Y-141514151D01*
X158534494Y-140965000D01*
X158425261Y-140415849D01*
X158114192Y-139950302D01*
X157732106Y-139695000D01*
X158114192Y-139439698D01*
X158425261Y-138974151D01*
X158534494Y-138425000D01*
X158425261Y-137875849D01*
X158114192Y-137410302D01*
X157732106Y-137155000D01*
X158114192Y-136899698D01*
X158425261Y-136434151D01*
X158534494Y-135885000D01*
X158425261Y-135335849D01*
X158114192Y-134870302D01*
X157732106Y-134615000D01*
X158114192Y-134359698D01*
X158425261Y-133894151D01*
X158534494Y-133345000D01*
X158425261Y-132795849D01*
X158114192Y-132330302D01*
X157732106Y-132075000D01*
X158114192Y-131819698D01*
X158425261Y-131354151D01*
X158534494Y-130805000D01*
X158425261Y-130255849D01*
X158114192Y-129790302D01*
X157736373Y-129537851D01*
X158169024Y-129189896D01*
X158438891Y-128696819D01*
X158456428Y-128614039D01*
X158334439Y-128392000D01*
X156841524Y-128392000D01*
X156841524Y-128412000D01*
X156587524Y-128412000D01*
X156587524Y-128392000D01*
X155094609Y-128392000D01*
X154972620Y-128614039D01*
X154990157Y-128696819D01*
X155260024Y-129189896D01*
X155692675Y-129537851D01*
X155314856Y-129790302D01*
X155003787Y-130255849D01*
X154894554Y-130805000D01*
X155003787Y-131354151D01*
X155314856Y-131819698D01*
X155696942Y-132075000D01*
X155314856Y-132330302D01*
X155003787Y-132795849D01*
X154894554Y-133345000D01*
X155003787Y-133894151D01*
X155314856Y-134359698D01*
X155696942Y-134615000D01*
X155314856Y-134870302D01*
X155144672Y-135125000D01*
X154777440Y-135125000D01*
X154777440Y-135040000D01*
X154733162Y-134804683D01*
X154594090Y-134588559D01*
X154381890Y-134443569D01*
X154130000Y-134392560D01*
X152130000Y-134392560D01*
X151894683Y-134436838D01*
X151678559Y-134575910D01*
X151533569Y-134788110D01*
X151482560Y-135040000D01*
X150777440Y-135040000D01*
X150733162Y-134804683D01*
X150594090Y-134588559D01*
X150381890Y-134443569D01*
X150130000Y-134392560D01*
X148130000Y-134392560D01*
X147894683Y-134436838D01*
X147678559Y-134575910D01*
X147533569Y-134788110D01*
X147482560Y-135040000D01*
X147482560Y-136410000D01*
X141532212Y-136410000D01*
X141567728Y-136356847D01*
X141658601Y-135900000D01*
X141569913Y-135454137D01*
X141627500Y-135315110D01*
X141627500Y-134915750D01*
X141468750Y-134757000D01*
X140720188Y-134757000D01*
X140464801Y-134706200D01*
X139615199Y-134706200D01*
X139359812Y-134757000D01*
X138611250Y-134757000D01*
X138452500Y-134915750D01*
X138452500Y-135140000D01*
X137970000Y-135140000D01*
X137679161Y-135197852D01*
X137432599Y-135362599D01*
X136172599Y-136622599D01*
X136007852Y-136869161D01*
X135950000Y-137160000D01*
X133477000Y-137160000D01*
X133477000Y-122935750D01*
X140755000Y-122935750D01*
X140755000Y-123776309D01*
X140851673Y-124009698D01*
X141030301Y-124188327D01*
X141263690Y-124285000D01*
X141954250Y-124285000D01*
X142113000Y-124126250D01*
X142113000Y-122777000D01*
X142367000Y-122777000D01*
X142367000Y-124126250D01*
X142525750Y-124285000D01*
X143216310Y-124285000D01*
X143449699Y-124188327D01*
X143628327Y-124009698D01*
X143725000Y-123776309D01*
X143725000Y-122935750D01*
X143566250Y-122777000D01*
X142367000Y-122777000D01*
X142113000Y-122777000D01*
X140913750Y-122777000D01*
X140755000Y-122935750D01*
X133477000Y-122935750D01*
X133477000Y-121523691D01*
X140755000Y-121523691D01*
X140755000Y-122364250D01*
X140913750Y-122523000D01*
X142113000Y-122523000D01*
X142113000Y-121173750D01*
X142367000Y-121173750D01*
X142367000Y-122523000D01*
X143566250Y-122523000D01*
X143725000Y-122364250D01*
X143725000Y-121523691D01*
X143628327Y-121290302D01*
X143449699Y-121111673D01*
X143216310Y-121015000D01*
X142525750Y-121015000D01*
X142367000Y-121173750D01*
X142113000Y-121173750D01*
X141954250Y-121015000D01*
X141263690Y-121015000D01*
X141030301Y-121111673D01*
X140851673Y-121290302D01*
X140755000Y-121523691D01*
X133477000Y-121523691D01*
X133477000Y-116722532D01*
X134877073Y-116722532D01*
X134975736Y-116989387D01*
X135585461Y-117215908D01*
X136235460Y-117191856D01*
X136724264Y-116989387D01*
X136822927Y-116722532D01*
X135850000Y-115749605D01*
X134877073Y-116722532D01*
X133477000Y-116722532D01*
X133477000Y-115305461D01*
X134204092Y-115305461D01*
X134228144Y-115955460D01*
X134430613Y-116444264D01*
X134697468Y-116542927D01*
X135670395Y-115570000D01*
X136029605Y-115570000D01*
X137002532Y-116542927D01*
X137269387Y-116444264D01*
X137495908Y-115834539D01*
X137471856Y-115184540D01*
X137269387Y-114695736D01*
X137002532Y-114597073D01*
X136029605Y-115570000D01*
X135670395Y-115570000D01*
X134697468Y-114597073D01*
X134430613Y-114695736D01*
X134204092Y-115305461D01*
X133477000Y-115305461D01*
X133477000Y-114417468D01*
X134877073Y-114417468D01*
X135850000Y-115390395D01*
X136822927Y-114417468D01*
X136724264Y-114150613D01*
X136114539Y-113924092D01*
X135464540Y-113948144D01*
X134975736Y-114150613D01*
X134877073Y-114417468D01*
X133477000Y-114417468D01*
X133477000Y-110813795D01*
X134214716Y-110813795D01*
X134463106Y-111414943D01*
X134922637Y-111875278D01*
X135523352Y-112124716D01*
X136173795Y-112125284D01*
X136774943Y-111876894D01*
X137235278Y-111417363D01*
X137304773Y-111250000D01*
X140784953Y-111250000D01*
X140853106Y-111414943D01*
X140919621Y-111481574D01*
X140788559Y-111565910D01*
X140643569Y-111778110D01*
X140592560Y-112030000D01*
X140592560Y-114030000D01*
X140636838Y-114265317D01*
X140775910Y-114481441D01*
X140988110Y-114626431D01*
X141240000Y-114677440D01*
X141480000Y-114677440D01*
X141480000Y-117002560D01*
X141390000Y-117002560D01*
X141154683Y-117046838D01*
X140938559Y-117185910D01*
X140793569Y-117398110D01*
X140742560Y-117650000D01*
X140742560Y-119650000D01*
X140786838Y-119885317D01*
X140925910Y-120101441D01*
X141138110Y-120246431D01*
X141390000Y-120297440D01*
X143090000Y-120297440D01*
X143325317Y-120253162D01*
X143541441Y-120114090D01*
X143686431Y-119901890D01*
X143737440Y-119650000D01*
X143737440Y-117650000D01*
X143693162Y-117414683D01*
X143554090Y-117198559D01*
X143341890Y-117053569D01*
X143090000Y-117002560D01*
X143000000Y-117002560D01*
X143000000Y-114677440D01*
X143240000Y-114677440D01*
X143475317Y-114633162D01*
X143691441Y-114494090D01*
X143836431Y-114281890D01*
X143887440Y-114030000D01*
X143887440Y-112030000D01*
X143843162Y-111794683D01*
X143704090Y-111578559D01*
X143561439Y-111481090D01*
X143625278Y-111417363D01*
X143694773Y-111250000D01*
X145735198Y-111250000D01*
X150370000Y-115884802D01*
X150370000Y-119201161D01*
X150130000Y-119152560D01*
X148130000Y-119152560D01*
X147894683Y-119196838D01*
X147678559Y-119335910D01*
X147533569Y-119548110D01*
X147482560Y-119800000D01*
X147482560Y-121500000D01*
X147526838Y-121735317D01*
X147665910Y-121951441D01*
X147878110Y-122096431D01*
X148130000Y-122147440D01*
X148370000Y-122147440D01*
X148370000Y-123955198D01*
X140158998Y-132166200D01*
X139615199Y-132166200D01*
X139158352Y-132257073D01*
X138771055Y-132515856D01*
X138512272Y-132903153D01*
X138421399Y-133360000D01*
X138510087Y-133805863D01*
X138452500Y-133944890D01*
X138452500Y-134344250D01*
X138611250Y-134503000D01*
X139359812Y-134503000D01*
X139615199Y-134553800D01*
X140464801Y-134553800D01*
X140720188Y-134503000D01*
X141468750Y-134503000D01*
X141627500Y-134344250D01*
X141627500Y-133944890D01*
X141569913Y-133805863D01*
X141658601Y-133360000D01*
X141568379Y-132906423D01*
X146157812Y-128316990D01*
X162595560Y-128316990D01*
X162595560Y-129458029D01*
X162692233Y-129691418D01*
X162870861Y-129870047D01*
X163104250Y-129966720D01*
X163544250Y-129966720D01*
X163703000Y-129807970D01*
X163703000Y-128158240D01*
X163957000Y-128158240D01*
X163957000Y-129807970D01*
X164115750Y-129966720D01*
X164555750Y-129966720D01*
X164789139Y-129870047D01*
X164967767Y-129691418D01*
X165064440Y-129458029D01*
X165064440Y-128316990D01*
X164905690Y-128158240D01*
X163957000Y-128158240D01*
X163703000Y-128158240D01*
X162754310Y-128158240D01*
X162595560Y-128316990D01*
X146157812Y-128316990D01*
X149667401Y-124807401D01*
X149832148Y-124560840D01*
X149890000Y-124270000D01*
X149890000Y-122147440D01*
X150130000Y-122147440D01*
X150365317Y-122103162D01*
X150370000Y-122100149D01*
X150370000Y-125730000D01*
X150427852Y-126020839D01*
X150592599Y-126267401D01*
X150839161Y-126432148D01*
X151130000Y-126490000D01*
X151155136Y-126485000D01*
X155144672Y-126485000D01*
X155314856Y-126739698D01*
X155692675Y-126992149D01*
X155260024Y-127340104D01*
X154990157Y-127833181D01*
X154972620Y-127915961D01*
X155094609Y-128138000D01*
X156587524Y-128138000D01*
X156587524Y-128118000D01*
X156841524Y-128118000D01*
X156841524Y-128138000D01*
X158334439Y-128138000D01*
X158456428Y-127915961D01*
X158438891Y-127833181D01*
X158169024Y-127340104D01*
X157736373Y-126992149D01*
X158114192Y-126739698D01*
X158284376Y-126485000D01*
X162645038Y-126485000D01*
X162595560Y-126604451D01*
X162595560Y-127745490D01*
X162754310Y-127904240D01*
X163703000Y-127904240D01*
X163703000Y-127884240D01*
X163957000Y-127884240D01*
X163957000Y-127904240D01*
X164905690Y-127904240D01*
X165064440Y-127745490D01*
X165064440Y-126769242D01*
X167102599Y-128807401D01*
X167349161Y-128972148D01*
X167640000Y-129030000D01*
X170388013Y-129030000D01*
X170554856Y-129279698D01*
X170936942Y-129535000D01*
X170554856Y-129790302D01*
X170243787Y-130255849D01*
X170134554Y-130805000D01*
X170243787Y-131354151D01*
X170554856Y-131819698D01*
X170936942Y-132075000D01*
X170554856Y-132330302D01*
X170243787Y-132795849D01*
X170134554Y-133345000D01*
X170243787Y-133894151D01*
X170554856Y-134359698D01*
X170936942Y-134615000D01*
X170554856Y-134870302D01*
X170243787Y-135335849D01*
X170134554Y-135885000D01*
X170243787Y-136434151D01*
X170554856Y-136899698D01*
X170936942Y-137155000D01*
X170554856Y-137410302D01*
X170243787Y-137875849D01*
X170134554Y-138425000D01*
X170243787Y-138974151D01*
X170554856Y-139439698D01*
X170936942Y-139695000D01*
X170554856Y-139950302D01*
X170243787Y-140415849D01*
X170134554Y-140965000D01*
X170243787Y-141514151D01*
X170554856Y-141979698D01*
X170936942Y-142235000D01*
X170554856Y-142490302D01*
X170243787Y-142955849D01*
X170134554Y-143505000D01*
X170243787Y-144054151D01*
X170554856Y-144519698D01*
X171020403Y-144830767D01*
X171569554Y-144940000D01*
X172339494Y-144940000D01*
X172888645Y-144830767D01*
X173354192Y-144519698D01*
X173665261Y-144054151D01*
X173774494Y-143505000D01*
X173665261Y-142955849D01*
X173354192Y-142490302D01*
X172972106Y-142235000D01*
X173354192Y-141979698D01*
X173665261Y-141514151D01*
X173715634Y-141260912D01*
X177772123Y-145317401D01*
X178018684Y-145482148D01*
X178309524Y-145540000D01*
X196850000Y-145540000D01*
X197140839Y-145482148D01*
X197387401Y-145317401D01*
X199927401Y-142777401D01*
X200092148Y-142530840D01*
X200101746Y-142482586D01*
X200150000Y-142240000D01*
X200150000Y-134620000D01*
X200098222Y-134359698D01*
X200092148Y-134329160D01*
X199927401Y-134082599D01*
X197610000Y-131765198D01*
X197610000Y-130988839D01*
X197850000Y-131037440D01*
X199850000Y-131037440D01*
X200085317Y-130993162D01*
X200301441Y-130854090D01*
X200446431Y-130641890D01*
X200497440Y-130390000D01*
X200497440Y-128690000D01*
X200453162Y-128454683D01*
X200314090Y-128238559D01*
X200101890Y-128093569D01*
X199850000Y-128042560D01*
X199610000Y-128042560D01*
X199610000Y-107410000D01*
X199552148Y-107119161D01*
X199387401Y-106872599D01*
X198657401Y-106142599D01*
X198410839Y-105977852D01*
X198120000Y-105920000D01*
X160020000Y-105920000D01*
X159729161Y-105977852D01*
X159482599Y-106142599D01*
X159317852Y-106389161D01*
X159260000Y-106680000D01*
X159260000Y-106864722D01*
X157074722Y-109050000D01*
X156329554Y-109050000D01*
X155780403Y-109159233D01*
X155314856Y-109470302D01*
X155003787Y-109935849D01*
X154894554Y-110485000D01*
X155003787Y-111034151D01*
X155314856Y-111499698D01*
X155696942Y-111755000D01*
X155314856Y-112010302D01*
X155003787Y-112475849D01*
X154894554Y-113025000D01*
X155003787Y-113574151D01*
X155314856Y-114039698D01*
X155696942Y-114295000D01*
X155314856Y-114550302D01*
X155003787Y-115015849D01*
X154894554Y-115565000D01*
X155003787Y-116114151D01*
X155314856Y-116579698D01*
X155696942Y-116835000D01*
X155314856Y-117090302D01*
X155003787Y-117555849D01*
X154894554Y-118105000D01*
X155003787Y-118654151D01*
X155314856Y-119119698D01*
X155696942Y-119375000D01*
X155314856Y-119630302D01*
X155144672Y-119885000D01*
X154777440Y-119885000D01*
X154777440Y-119800000D01*
X154733162Y-119564683D01*
X154594090Y-119348559D01*
X154381890Y-119203569D01*
X154130000Y-119152560D01*
X152130000Y-119152560D01*
X151894683Y-119196838D01*
X151890000Y-119199851D01*
X151890000Y-115570000D01*
X151832148Y-115279161D01*
X151667401Y-115032599D01*
X146587401Y-109952599D01*
X146340839Y-109787852D01*
X146050000Y-109730000D01*
X143695047Y-109730000D01*
X143626894Y-109565057D01*
X143167363Y-109104722D01*
X142566648Y-108855284D01*
X141916205Y-108854716D01*
X141315057Y-109103106D01*
X140854722Y-109562637D01*
X140785227Y-109730000D01*
X137305047Y-109730000D01*
X137236894Y-109565057D01*
X136777363Y-109104722D01*
X136176648Y-108855284D01*
X135526205Y-108854716D01*
X134925057Y-109103106D01*
X134464722Y-109562637D01*
X134215284Y-110163352D01*
X134214716Y-110813795D01*
X133477000Y-110813795D01*
X133477000Y-104850000D01*
X201220000Y-104850000D01*
X201220000Y-147880000D01*
X201220000Y-147880000D01*
G37*
X201220000Y-147880000D02*
X133477000Y-147880000D01*
X133477000Y-137160000D01*
X135950000Y-137160000D01*
X135950000Y-139620000D01*
X136007852Y-139910839D01*
X136172599Y-140157401D01*
X136252599Y-140237401D01*
X136499161Y-140402148D01*
X136790000Y-140460000D01*
X147482560Y-140460000D01*
X147482560Y-140550000D01*
X147526838Y-140785317D01*
X147665910Y-141001441D01*
X147878110Y-141146431D01*
X148130000Y-141197440D01*
X150130000Y-141197440D01*
X150365317Y-141153162D01*
X150581441Y-141014090D01*
X150726431Y-140801890D01*
X150777440Y-140550000D01*
X150777440Y-138850000D01*
X150733162Y-138614683D01*
X150594090Y-138398559D01*
X150381890Y-138253569D01*
X150130000Y-138202560D01*
X148130000Y-138202560D01*
X147894683Y-138246838D01*
X147678559Y-138385910D01*
X147533569Y-138598110D01*
X147482560Y-138850000D01*
X147482560Y-138940000D01*
X137470000Y-138940000D01*
X137470000Y-137474802D01*
X138284802Y-136660000D01*
X138547788Y-136660000D01*
X138512272Y-136713153D01*
X138421399Y-137170000D01*
X138512272Y-137626847D01*
X138771055Y-138014144D01*
X139158352Y-138272927D01*
X139615199Y-138363800D01*
X140464801Y-138363800D01*
X140921648Y-138272927D01*
X141308945Y-138014144D01*
X141365168Y-137930000D01*
X147850000Y-137930000D01*
X148140839Y-137872148D01*
X148387401Y-137707401D01*
X148707362Y-137387440D01*
X150130000Y-137387440D01*
X150365317Y-137343162D01*
X150581441Y-137204090D01*
X150726431Y-136991890D01*
X150777440Y-136740000D01*
X150777440Y-135040000D01*
X151482560Y-135040000D01*
X151482560Y-136740000D01*
X151526838Y-136975317D01*
X151665910Y-137191441D01*
X151878110Y-137336431D01*
X152130000Y-137387440D01*
X154130000Y-137387440D01*
X154365317Y-137343162D01*
X154581441Y-137204090D01*
X154726431Y-136991890D01*
X154777440Y-136740000D01*
X154777440Y-136645000D01*
X155144672Y-136645000D01*
X155314856Y-136899698D01*
X155696942Y-137155000D01*
X155314856Y-137410302D01*
X155144672Y-137665000D01*
X154405000Y-137665000D01*
X154114160Y-137722852D01*
X153867599Y-137887599D01*
X153552638Y-138202560D01*
X152130000Y-138202560D01*
X151894683Y-138246838D01*
X151678559Y-138385910D01*
X151533569Y-138598110D01*
X151482560Y-138850000D01*
X151482560Y-140550000D01*
X151526838Y-140785317D01*
X151665910Y-141001441D01*
X151878110Y-141146431D01*
X152130000Y-141197440D01*
X154130000Y-141197440D01*
X154365317Y-141153162D01*
X154581441Y-141014090D01*
X154726431Y-140801890D01*
X154777440Y-140550000D01*
X154777440Y-139185000D01*
X155144672Y-139185000D01*
X155314856Y-139439698D01*
X155696942Y-139695000D01*
X155314856Y-139950302D01*
X155003787Y-140415849D01*
X154894554Y-140965000D01*
X155003787Y-141514151D01*
X155314856Y-141979698D01*
X155696942Y-142235000D01*
X155314856Y-142490302D01*
X155003787Y-142955849D01*
X154894554Y-143505000D01*
X155003787Y-144054151D01*
X155314856Y-144519698D01*
X155780403Y-144830767D01*
X156329554Y-144940000D01*
X157099494Y-144940000D01*
X157648645Y-144830767D01*
X158114192Y-144519698D01*
X158425261Y-144054151D01*
X158534494Y-143505000D01*
X158425261Y-142955849D01*
X158114192Y-142490302D01*
X157732106Y-142235000D01*
X158114192Y-141979698D01*
X158425261Y-141514151D01*
X158534494Y-140965000D01*
X158425261Y-140415849D01*
X158114192Y-139950302D01*
X157732106Y-139695000D01*
X158114192Y-139439698D01*
X158425261Y-138974151D01*
X158534494Y-138425000D01*
X158425261Y-137875849D01*
X158114192Y-137410302D01*
X157732106Y-137155000D01*
X158114192Y-136899698D01*
X158425261Y-136434151D01*
X158534494Y-135885000D01*
X158425261Y-135335849D01*
X158114192Y-134870302D01*
X157732106Y-134615000D01*
X158114192Y-134359698D01*
X158425261Y-133894151D01*
X158534494Y-133345000D01*
X158425261Y-132795849D01*
X158114192Y-132330302D01*
X157732106Y-132075000D01*
X158114192Y-131819698D01*
X158425261Y-131354151D01*
X158534494Y-130805000D01*
X158425261Y-130255849D01*
X158114192Y-129790302D01*
X157736373Y-129537851D01*
X158169024Y-129189896D01*
X158438891Y-128696819D01*
X158456428Y-128614039D01*
X158334439Y-128392000D01*
X156841524Y-128392000D01*
X156841524Y-128412000D01*
X156587524Y-128412000D01*
X156587524Y-128392000D01*
X155094609Y-128392000D01*
X154972620Y-128614039D01*
X154990157Y-128696819D01*
X155260024Y-129189896D01*
X155692675Y-129537851D01*
X155314856Y-129790302D01*
X155003787Y-130255849D01*
X154894554Y-130805000D01*
X155003787Y-131354151D01*
X155314856Y-131819698D01*
X155696942Y-132075000D01*
X155314856Y-132330302D01*
X155003787Y-132795849D01*
X154894554Y-133345000D01*
X155003787Y-133894151D01*
X155314856Y-134359698D01*
X155696942Y-134615000D01*
X155314856Y-134870302D01*
X155144672Y-135125000D01*
X154777440Y-135125000D01*
X154777440Y-135040000D01*
X154733162Y-134804683D01*
X154594090Y-134588559D01*
X154381890Y-134443569D01*
X154130000Y-134392560D01*
X152130000Y-134392560D01*
X151894683Y-134436838D01*
X151678559Y-134575910D01*
X151533569Y-134788110D01*
X151482560Y-135040000D01*
X150777440Y-135040000D01*
X150733162Y-134804683D01*
X150594090Y-134588559D01*
X150381890Y-134443569D01*
X150130000Y-134392560D01*
X148130000Y-134392560D01*
X147894683Y-134436838D01*
X147678559Y-134575910D01*
X147533569Y-134788110D01*
X147482560Y-135040000D01*
X147482560Y-136410000D01*
X141532212Y-136410000D01*
X141567728Y-136356847D01*
X141658601Y-135900000D01*
X141569913Y-135454137D01*
X141627500Y-135315110D01*
X141627500Y-134915750D01*
X141468750Y-134757000D01*
X140720188Y-134757000D01*
X140464801Y-134706200D01*
X139615199Y-134706200D01*
X139359812Y-134757000D01*
X138611250Y-134757000D01*
X138452500Y-134915750D01*
X138452500Y-135140000D01*
X137970000Y-135140000D01*
X137679161Y-135197852D01*
X137432599Y-135362599D01*
X136172599Y-136622599D01*
X136007852Y-136869161D01*
X135950000Y-137160000D01*
X133477000Y-137160000D01*
X133477000Y-122935750D01*
X140755000Y-122935750D01*
X140755000Y-123776309D01*
X140851673Y-124009698D01*
X141030301Y-124188327D01*
X141263690Y-124285000D01*
X141954250Y-124285000D01*
X142113000Y-124126250D01*
X142113000Y-122777000D01*
X142367000Y-122777000D01*
X142367000Y-124126250D01*
X142525750Y-124285000D01*
X143216310Y-124285000D01*
X143449699Y-124188327D01*
X143628327Y-124009698D01*
X143725000Y-123776309D01*
X143725000Y-122935750D01*
X143566250Y-122777000D01*
X142367000Y-122777000D01*
X142113000Y-122777000D01*
X140913750Y-122777000D01*
X140755000Y-122935750D01*
X133477000Y-122935750D01*
X133477000Y-121523691D01*
X140755000Y-121523691D01*
X140755000Y-122364250D01*
X140913750Y-122523000D01*
X142113000Y-122523000D01*
X142113000Y-121173750D01*
X142367000Y-121173750D01*
X142367000Y-122523000D01*
X143566250Y-122523000D01*
X143725000Y-122364250D01*
X143725000Y-121523691D01*
X143628327Y-121290302D01*
X143449699Y-121111673D01*
X143216310Y-121015000D01*
X142525750Y-121015000D01*
X142367000Y-121173750D01*
X142113000Y-121173750D01*
X141954250Y-121015000D01*
X141263690Y-121015000D01*
X141030301Y-121111673D01*
X140851673Y-121290302D01*
X140755000Y-121523691D01*
X133477000Y-121523691D01*
X133477000Y-116722532D01*
X134877073Y-116722532D01*
X134975736Y-116989387D01*
X135585461Y-117215908D01*
X136235460Y-117191856D01*
X136724264Y-116989387D01*
X136822927Y-116722532D01*
X135850000Y-115749605D01*
X134877073Y-116722532D01*
X133477000Y-116722532D01*
X133477000Y-115305461D01*
X134204092Y-115305461D01*
X134228144Y-115955460D01*
X134430613Y-116444264D01*
X134697468Y-116542927D01*
X135670395Y-115570000D01*
X136029605Y-115570000D01*
X137002532Y-116542927D01*
X137269387Y-116444264D01*
X137495908Y-115834539D01*
X137471856Y-115184540D01*
X137269387Y-114695736D01*
X137002532Y-114597073D01*
X136029605Y-115570000D01*
X135670395Y-115570000D01*
X134697468Y-114597073D01*
X134430613Y-114695736D01*
X134204092Y-115305461D01*
X133477000Y-115305461D01*
X133477000Y-114417468D01*
X134877073Y-114417468D01*
X135850000Y-115390395D01*
X136822927Y-114417468D01*
X136724264Y-114150613D01*
X136114539Y-113924092D01*
X135464540Y-113948144D01*
X134975736Y-114150613D01*
X134877073Y-114417468D01*
X133477000Y-114417468D01*
X133477000Y-110813795D01*
X134214716Y-110813795D01*
X134463106Y-111414943D01*
X134922637Y-111875278D01*
X135523352Y-112124716D01*
X136173795Y-112125284D01*
X136774943Y-111876894D01*
X137235278Y-111417363D01*
X137304773Y-111250000D01*
X140784953Y-111250000D01*
X140853106Y-111414943D01*
X140919621Y-111481574D01*
X140788559Y-111565910D01*
X140643569Y-111778110D01*
X140592560Y-112030000D01*
X140592560Y-114030000D01*
X140636838Y-114265317D01*
X140775910Y-114481441D01*
X140988110Y-114626431D01*
X141240000Y-114677440D01*
X141480000Y-114677440D01*
X141480000Y-117002560D01*
X141390000Y-117002560D01*
X141154683Y-117046838D01*
X140938559Y-117185910D01*
X140793569Y-117398110D01*
X140742560Y-117650000D01*
X140742560Y-119650000D01*
X140786838Y-119885317D01*
X140925910Y-120101441D01*
X141138110Y-120246431D01*
X141390000Y-120297440D01*
X143090000Y-120297440D01*
X143325317Y-120253162D01*
X143541441Y-120114090D01*
X143686431Y-119901890D01*
X143737440Y-119650000D01*
X143737440Y-117650000D01*
X143693162Y-117414683D01*
X143554090Y-117198559D01*
X143341890Y-117053569D01*
X143090000Y-117002560D01*
X143000000Y-117002560D01*
X143000000Y-114677440D01*
X143240000Y-114677440D01*
X143475317Y-114633162D01*
X143691441Y-114494090D01*
X143836431Y-114281890D01*
X143887440Y-114030000D01*
X143887440Y-112030000D01*
X143843162Y-111794683D01*
X143704090Y-111578559D01*
X143561439Y-111481090D01*
X143625278Y-111417363D01*
X143694773Y-111250000D01*
X145735198Y-111250000D01*
X150370000Y-115884802D01*
X150370000Y-119201161D01*
X150130000Y-119152560D01*
X148130000Y-119152560D01*
X147894683Y-119196838D01*
X147678559Y-119335910D01*
X147533569Y-119548110D01*
X147482560Y-119800000D01*
X147482560Y-121500000D01*
X147526838Y-121735317D01*
X147665910Y-121951441D01*
X147878110Y-122096431D01*
X148130000Y-122147440D01*
X148370000Y-122147440D01*
X148370000Y-123955198D01*
X140158998Y-132166200D01*
X139615199Y-132166200D01*
X139158352Y-132257073D01*
X138771055Y-132515856D01*
X138512272Y-132903153D01*
X138421399Y-133360000D01*
X138510087Y-133805863D01*
X138452500Y-133944890D01*
X138452500Y-134344250D01*
X138611250Y-134503000D01*
X139359812Y-134503000D01*
X139615199Y-134553800D01*
X140464801Y-134553800D01*
X140720188Y-134503000D01*
X141468750Y-134503000D01*
X141627500Y-134344250D01*
X141627500Y-133944890D01*
X141569913Y-133805863D01*
X141658601Y-133360000D01*
X141568379Y-132906423D01*
X146157812Y-128316990D01*
X162595560Y-128316990D01*
X162595560Y-129458029D01*
X162692233Y-129691418D01*
X162870861Y-129870047D01*
X163104250Y-129966720D01*
X163544250Y-129966720D01*
X163703000Y-129807970D01*
X163703000Y-128158240D01*
X163957000Y-128158240D01*
X163957000Y-129807970D01*
X164115750Y-129966720D01*
X164555750Y-129966720D01*
X164789139Y-129870047D01*
X164967767Y-129691418D01*
X165064440Y-129458029D01*
X165064440Y-128316990D01*
X164905690Y-128158240D01*
X163957000Y-128158240D01*
X163703000Y-128158240D01*
X162754310Y-128158240D01*
X162595560Y-128316990D01*
X146157812Y-128316990D01*
X149667401Y-124807401D01*
X149832148Y-124560840D01*
X149890000Y-124270000D01*
X149890000Y-122147440D01*
X150130000Y-122147440D01*
X150365317Y-122103162D01*
X150370000Y-122100149D01*
X150370000Y-125730000D01*
X150427852Y-126020839D01*
X150592599Y-126267401D01*
X150839161Y-126432148D01*
X151130000Y-126490000D01*
X151155136Y-126485000D01*
X155144672Y-126485000D01*
X155314856Y-126739698D01*
X155692675Y-126992149D01*
X155260024Y-127340104D01*
X154990157Y-127833181D01*
X154972620Y-127915961D01*
X155094609Y-128138000D01*
X156587524Y-128138000D01*
X156587524Y-128118000D01*
X156841524Y-128118000D01*
X156841524Y-128138000D01*
X158334439Y-128138000D01*
X158456428Y-127915961D01*
X158438891Y-127833181D01*
X158169024Y-127340104D01*
X157736373Y-126992149D01*
X158114192Y-126739698D01*
X158284376Y-126485000D01*
X162645038Y-126485000D01*
X162595560Y-126604451D01*
X162595560Y-127745490D01*
X162754310Y-127904240D01*
X163703000Y-127904240D01*
X163703000Y-127884240D01*
X163957000Y-127884240D01*
X163957000Y-127904240D01*
X164905690Y-127904240D01*
X165064440Y-127745490D01*
X165064440Y-126769242D01*
X167102599Y-128807401D01*
X167349161Y-128972148D01*
X167640000Y-129030000D01*
X170388013Y-129030000D01*
X170554856Y-129279698D01*
X170936942Y-129535000D01*
X170554856Y-129790302D01*
X170243787Y-130255849D01*
X170134554Y-130805000D01*
X170243787Y-131354151D01*
X170554856Y-131819698D01*
X170936942Y-132075000D01*
X170554856Y-132330302D01*
X170243787Y-132795849D01*
X170134554Y-133345000D01*
X170243787Y-133894151D01*
X170554856Y-134359698D01*
X170936942Y-134615000D01*
X170554856Y-134870302D01*
X170243787Y-135335849D01*
X170134554Y-135885000D01*
X170243787Y-136434151D01*
X170554856Y-136899698D01*
X170936942Y-137155000D01*
X170554856Y-137410302D01*
X170243787Y-137875849D01*
X170134554Y-138425000D01*
X170243787Y-138974151D01*
X170554856Y-139439698D01*
X170936942Y-139695000D01*
X170554856Y-139950302D01*
X170243787Y-140415849D01*
X170134554Y-140965000D01*
X170243787Y-141514151D01*
X170554856Y-141979698D01*
X170936942Y-142235000D01*
X170554856Y-142490302D01*
X170243787Y-142955849D01*
X170134554Y-143505000D01*
X170243787Y-144054151D01*
X170554856Y-144519698D01*
X171020403Y-144830767D01*
X171569554Y-144940000D01*
X172339494Y-144940000D01*
X172888645Y-144830767D01*
X173354192Y-144519698D01*
X173665261Y-144054151D01*
X173774494Y-143505000D01*
X173665261Y-142955849D01*
X173354192Y-142490302D01*
X172972106Y-142235000D01*
X173354192Y-141979698D01*
X173665261Y-141514151D01*
X173715634Y-141260912D01*
X177772123Y-145317401D01*
X178018684Y-145482148D01*
X178309524Y-145540000D01*
X196850000Y-145540000D01*
X197140839Y-145482148D01*
X197387401Y-145317401D01*
X199927401Y-142777401D01*
X200092148Y-142530840D01*
X200101746Y-142482586D01*
X200150000Y-142240000D01*
X200150000Y-134620000D01*
X200098222Y-134359698D01*
X200092148Y-134329160D01*
X199927401Y-134082599D01*
X197610000Y-131765198D01*
X197610000Y-130988839D01*
X197850000Y-131037440D01*
X199850000Y-131037440D01*
X200085317Y-130993162D01*
X200301441Y-130854090D01*
X200446431Y-130641890D01*
X200497440Y-130390000D01*
X200497440Y-128690000D01*
X200453162Y-128454683D01*
X200314090Y-128238559D01*
X200101890Y-128093569D01*
X199850000Y-128042560D01*
X199610000Y-128042560D01*
X199610000Y-107410000D01*
X199552148Y-107119161D01*
X199387401Y-106872599D01*
X198657401Y-106142599D01*
X198410839Y-105977852D01*
X198120000Y-105920000D01*
X160020000Y-105920000D01*
X159729161Y-105977852D01*
X159482599Y-106142599D01*
X159317852Y-106389161D01*
X159260000Y-106680000D01*
X159260000Y-106864722D01*
X157074722Y-109050000D01*
X156329554Y-109050000D01*
X155780403Y-109159233D01*
X155314856Y-109470302D01*
X155003787Y-109935849D01*
X154894554Y-110485000D01*
X155003787Y-111034151D01*
X155314856Y-111499698D01*
X155696942Y-111755000D01*
X155314856Y-112010302D01*
X155003787Y-112475849D01*
X154894554Y-113025000D01*
X155003787Y-113574151D01*
X155314856Y-114039698D01*
X155696942Y-114295000D01*
X155314856Y-114550302D01*
X155003787Y-115015849D01*
X154894554Y-115565000D01*
X155003787Y-116114151D01*
X155314856Y-116579698D01*
X155696942Y-116835000D01*
X155314856Y-117090302D01*
X155003787Y-117555849D01*
X154894554Y-118105000D01*
X155003787Y-118654151D01*
X155314856Y-119119698D01*
X155696942Y-119375000D01*
X155314856Y-119630302D01*
X155144672Y-119885000D01*
X154777440Y-119885000D01*
X154777440Y-119800000D01*
X154733162Y-119564683D01*
X154594090Y-119348559D01*
X154381890Y-119203569D01*
X154130000Y-119152560D01*
X152130000Y-119152560D01*
X151894683Y-119196838D01*
X151890000Y-119199851D01*
X151890000Y-115570000D01*
X151832148Y-115279161D01*
X151667401Y-115032599D01*
X146587401Y-109952599D01*
X146340839Y-109787852D01*
X146050000Y-109730000D01*
X143695047Y-109730000D01*
X143626894Y-109565057D01*
X143167363Y-109104722D01*
X142566648Y-108855284D01*
X141916205Y-108854716D01*
X141315057Y-109103106D01*
X140854722Y-109562637D01*
X140785227Y-109730000D01*
X137305047Y-109730000D01*
X137236894Y-109565057D01*
X136777363Y-109104722D01*
X136176648Y-108855284D01*
X135526205Y-108854716D01*
X134925057Y-109103106D01*
X134464722Y-109562637D01*
X134215284Y-110163352D01*
X134214716Y-110813795D01*
X133477000Y-110813795D01*
X133477000Y-104850000D01*
X201220000Y-104850000D01*
X201220000Y-147880000D01*
G36*
X196090000Y-132080000D02*
X196147852Y-132370839D01*
X196312599Y-132617401D01*
X198630000Y-134934802D01*
X198630000Y-141925198D01*
X196535198Y-144020000D01*
X178624326Y-144020000D01*
X173630500Y-139026174D01*
X173665261Y-138974151D01*
X173702084Y-138789026D01*
X180155042Y-138789026D01*
X180327312Y-139204947D01*
X180721510Y-139636821D01*
X181250973Y-139884968D01*
X181483000Y-139764469D01*
X181483000Y-138557000D01*
X181737000Y-138557000D01*
X181737000Y-139764469D01*
X181969027Y-139884968D01*
X182498490Y-139636821D01*
X182880000Y-139218848D01*
X183261510Y-139636821D01*
X183790973Y-139884968D01*
X184023000Y-139764469D01*
X184023000Y-138557000D01*
X184277000Y-138557000D01*
X184277000Y-139764469D01*
X184509027Y-139884968D01*
X185038490Y-139636821D01*
X185420000Y-139218848D01*
X185801510Y-139636821D01*
X186330973Y-139884968D01*
X186563000Y-139764469D01*
X186563000Y-138557000D01*
X186817000Y-138557000D01*
X186817000Y-139764469D01*
X187049027Y-139884968D01*
X187578490Y-139636821D01*
X187960000Y-139218848D01*
X188341510Y-139636821D01*
X188870973Y-139884968D01*
X189103000Y-139764469D01*
X189103000Y-138557000D01*
X186817000Y-138557000D01*
X186563000Y-138557000D01*
X184277000Y-138557000D01*
X184023000Y-138557000D01*
X181737000Y-138557000D01*
X181483000Y-138557000D01*
X180276183Y-138557000D01*
X180155042Y-138789026D01*
X173702084Y-138789026D01*
X173774494Y-138425000D01*
X173665261Y-137875849D01*
X173354192Y-137410302D01*
X172972106Y-137155000D01*
X173354192Y-136899698D01*
X173521035Y-136650000D01*
X180320738Y-136650000D01*
X180520971Y-136949670D01*
X180844228Y-137165664D01*
X180721510Y-137223179D01*
X180327312Y-137655053D01*
X180155042Y-138070974D01*
X180276183Y-138303000D01*
X181483000Y-138303000D01*
X181483000Y-138283000D01*
X181737000Y-138283000D01*
X181737000Y-138303000D01*
X184023000Y-138303000D01*
X184023000Y-138283000D01*
X184277000Y-138283000D01*
X184277000Y-138303000D01*
X186563000Y-138303000D01*
X186563000Y-138283000D01*
X186817000Y-138283000D01*
X186817000Y-138303000D01*
X189103000Y-138303000D01*
X189103000Y-138283000D01*
X189357000Y-138283000D01*
X189357000Y-138303000D01*
X189377000Y-138303000D01*
X189377000Y-138557000D01*
X189357000Y-138557000D01*
X189357000Y-139764469D01*
X189589027Y-139884968D01*
X190118490Y-139636821D01*
X190500008Y-139218839D01*
X190680971Y-139489670D01*
X191167152Y-139814526D01*
X191740641Y-139928600D01*
X191799359Y-139928600D01*
X192372848Y-139814526D01*
X192859029Y-139489670D01*
X193059262Y-139190000D01*
X195580000Y-139190000D01*
X195870839Y-139132148D01*
X196117401Y-138967401D01*
X196282148Y-138720839D01*
X196340000Y-138430000D01*
X196282148Y-138139161D01*
X196117401Y-137892599D01*
X195610000Y-137385198D01*
X195610000Y-131037440D01*
X195850000Y-131037440D01*
X196085317Y-130993162D01*
X196090000Y-130990149D01*
X196090000Y-132080000D01*
X196090000Y-132080000D01*
G37*
X196090000Y-132080000D02*
X196147852Y-132370839D01*
X196312599Y-132617401D01*
X198630000Y-134934802D01*
X198630000Y-141925198D01*
X196535198Y-144020000D01*
X178624326Y-144020000D01*
X173630500Y-139026174D01*
X173665261Y-138974151D01*
X173702084Y-138789026D01*
X180155042Y-138789026D01*
X180327312Y-139204947D01*
X180721510Y-139636821D01*
X181250973Y-139884968D01*
X181483000Y-139764469D01*
X181483000Y-138557000D01*
X181737000Y-138557000D01*
X181737000Y-139764469D01*
X181969027Y-139884968D01*
X182498490Y-139636821D01*
X182880000Y-139218848D01*
X183261510Y-139636821D01*
X183790973Y-139884968D01*
X184023000Y-139764469D01*
X184023000Y-138557000D01*
X184277000Y-138557000D01*
X184277000Y-139764469D01*
X184509027Y-139884968D01*
X185038490Y-139636821D01*
X185420000Y-139218848D01*
X185801510Y-139636821D01*
X186330973Y-139884968D01*
X186563000Y-139764469D01*
X186563000Y-138557000D01*
X186817000Y-138557000D01*
X186817000Y-139764469D01*
X187049027Y-139884968D01*
X187578490Y-139636821D01*
X187960000Y-139218848D01*
X188341510Y-139636821D01*
X188870973Y-139884968D01*
X189103000Y-139764469D01*
X189103000Y-138557000D01*
X186817000Y-138557000D01*
X186563000Y-138557000D01*
X184277000Y-138557000D01*
X184023000Y-138557000D01*
X181737000Y-138557000D01*
X181483000Y-138557000D01*
X180276183Y-138557000D01*
X180155042Y-138789026D01*
X173702084Y-138789026D01*
X173774494Y-138425000D01*
X173665261Y-137875849D01*
X173354192Y-137410302D01*
X172972106Y-137155000D01*
X173354192Y-136899698D01*
X173521035Y-136650000D01*
X180320738Y-136650000D01*
X180520971Y-136949670D01*
X180844228Y-137165664D01*
X180721510Y-137223179D01*
X180327312Y-137655053D01*
X180155042Y-138070974D01*
X180276183Y-138303000D01*
X181483000Y-138303000D01*
X181483000Y-138283000D01*
X181737000Y-138283000D01*
X181737000Y-138303000D01*
X184023000Y-138303000D01*
X184023000Y-138283000D01*
X184277000Y-138283000D01*
X184277000Y-138303000D01*
X186563000Y-138303000D01*
X186563000Y-138283000D01*
X186817000Y-138283000D01*
X186817000Y-138303000D01*
X189103000Y-138303000D01*
X189103000Y-138283000D01*
X189357000Y-138283000D01*
X189357000Y-138303000D01*
X189377000Y-138303000D01*
X189377000Y-138557000D01*
X189357000Y-138557000D01*
X189357000Y-139764469D01*
X189589027Y-139884968D01*
X190118490Y-139636821D01*
X190500008Y-139218839D01*
X190680971Y-139489670D01*
X191167152Y-139814526D01*
X191740641Y-139928600D01*
X191799359Y-139928600D01*
X192372848Y-139814526D01*
X192859029Y-139489670D01*
X193059262Y-139190000D01*
X195580000Y-139190000D01*
X195870839Y-139132148D01*
X196117401Y-138967401D01*
X196282148Y-138720839D01*
X196340000Y-138430000D01*
X196282148Y-138139161D01*
X196117401Y-137892599D01*
X195610000Y-137385198D01*
X195610000Y-131037440D01*
X195850000Y-131037440D01*
X196085317Y-130993162D01*
X196090000Y-130990149D01*
X196090000Y-132080000D01*
G36*
X198090000Y-107724802D02*
X198090000Y-128042560D01*
X197850000Y-128042560D01*
X197614683Y-128086838D01*
X197610000Y-128089851D01*
X197610000Y-127000000D01*
X197552148Y-126709161D01*
X197387401Y-126462599D01*
X197140839Y-126297852D01*
X196850000Y-126240000D01*
X193040000Y-126240000D01*
X192749160Y-126297852D01*
X192502599Y-126462599D01*
X191232599Y-127732599D01*
X191067852Y-127979161D01*
X191010000Y-128270000D01*
X191010000Y-134378960D01*
X190906400Y-134378960D01*
X190671083Y-134423238D01*
X190454959Y-134562310D01*
X190309969Y-134774510D01*
X190301092Y-134818345D01*
X189832848Y-134505474D01*
X189259359Y-134391400D01*
X189200641Y-134391400D01*
X188627152Y-134505474D01*
X188140971Y-134830330D01*
X187960000Y-135101172D01*
X187779029Y-134830330D01*
X187292848Y-134505474D01*
X186719359Y-134391400D01*
X186660641Y-134391400D01*
X186331644Y-134456842D01*
X182147401Y-130272599D01*
X181900839Y-130107852D01*
X181610000Y-130050000D01*
X173527717Y-130050000D01*
X173354192Y-129790302D01*
X172972106Y-129535000D01*
X173354192Y-129279698D01*
X173665261Y-128814151D01*
X173774494Y-128265000D01*
X173665261Y-127715849D01*
X173354192Y-127250302D01*
X172976373Y-126997851D01*
X173409024Y-126649896D01*
X173678891Y-126156819D01*
X173696428Y-126074039D01*
X173664404Y-126015750D01*
X184325000Y-126015750D01*
X184325000Y-126706310D01*
X184421673Y-126939699D01*
X184600302Y-127118327D01*
X184833691Y-127215000D01*
X185674250Y-127215000D01*
X185833000Y-127056250D01*
X185833000Y-125857000D01*
X186087000Y-125857000D01*
X186087000Y-127056250D01*
X186245750Y-127215000D01*
X187086309Y-127215000D01*
X187319698Y-127118327D01*
X187498327Y-126939699D01*
X187595000Y-126706310D01*
X187595000Y-126015750D01*
X187436250Y-125857000D01*
X186087000Y-125857000D01*
X185833000Y-125857000D01*
X184483750Y-125857000D01*
X184325000Y-126015750D01*
X173664404Y-126015750D01*
X173574439Y-125852000D01*
X172081524Y-125852000D01*
X172081524Y-125872000D01*
X171827524Y-125872000D01*
X171827524Y-125852000D01*
X170334609Y-125852000D01*
X170212620Y-126074039D01*
X170230157Y-126156819D01*
X170500024Y-126649896D01*
X170932675Y-126997851D01*
X170554856Y-127250302D01*
X170381331Y-127510000D01*
X167954802Y-127510000D01*
X165632401Y-125187599D01*
X165385839Y-125022852D01*
X165095000Y-124965000D01*
X165018578Y-124965000D01*
X165064440Y-124854279D01*
X165064440Y-123714510D01*
X164905690Y-123555760D01*
X163957000Y-123555760D01*
X163957000Y-123575760D01*
X163703000Y-123575760D01*
X163703000Y-123555760D01*
X162754310Y-123555760D01*
X162595560Y-123714510D01*
X162595560Y-124854279D01*
X162641422Y-124965000D01*
X158284376Y-124965000D01*
X158114192Y-124710302D01*
X157732106Y-124455000D01*
X158114192Y-124199698D01*
X158425261Y-123734151D01*
X158534494Y-123185000D01*
X158425261Y-122635849D01*
X158114192Y-122170302D01*
X157864168Y-122003241D01*
X162595560Y-122003241D01*
X162595560Y-123143010D01*
X162754310Y-123301760D01*
X163703000Y-123301760D01*
X163703000Y-121653300D01*
X163957000Y-121653300D01*
X163957000Y-123301760D01*
X164905690Y-123301760D01*
X165064440Y-123143010D01*
X165064440Y-122003241D01*
X164967767Y-121769852D01*
X164789139Y-121591223D01*
X164555750Y-121494550D01*
X164115750Y-121494550D01*
X163957000Y-121653300D01*
X163703000Y-121653300D01*
X163544250Y-121494550D01*
X163104250Y-121494550D01*
X162870861Y-121591223D01*
X162692233Y-121769852D01*
X162595560Y-122003241D01*
X157864168Y-122003241D01*
X157732106Y-121915000D01*
X158114192Y-121659698D01*
X158425261Y-121194151D01*
X158534494Y-120645000D01*
X158425261Y-120095849D01*
X158114192Y-119630302D01*
X157732106Y-119375000D01*
X158114192Y-119119698D01*
X158425261Y-118654151D01*
X158534494Y-118105000D01*
X158425261Y-117555849D01*
X158114192Y-117090302D01*
X157732106Y-116835000D01*
X158114192Y-116579698D01*
X158425261Y-116114151D01*
X158534494Y-115565000D01*
X158425261Y-115015849D01*
X158114192Y-114550302D01*
X157732106Y-114295000D01*
X158114192Y-114039698D01*
X158425261Y-113574151D01*
X158534494Y-113025000D01*
X158425261Y-112475849D01*
X158114192Y-112010302D01*
X157732106Y-111755000D01*
X158114192Y-111499698D01*
X158425261Y-111034151D01*
X158534494Y-110485000D01*
X170134554Y-110485000D01*
X170243787Y-111034151D01*
X170554856Y-111499698D01*
X170936942Y-111755000D01*
X170554856Y-112010302D01*
X170243787Y-112475849D01*
X170134554Y-113025000D01*
X170243787Y-113574151D01*
X170554856Y-114039698D01*
X170936942Y-114295000D01*
X170554856Y-114550302D01*
X170243787Y-115015849D01*
X170134554Y-115565000D01*
X170243787Y-116114151D01*
X170554856Y-116579698D01*
X170936942Y-116835000D01*
X170554856Y-117090302D01*
X170243787Y-117555849D01*
X170134554Y-118105000D01*
X170243787Y-118654151D01*
X170554856Y-119119698D01*
X170936942Y-119375000D01*
X170554856Y-119630302D01*
X170243787Y-120095849D01*
X170134554Y-120645000D01*
X170243787Y-121194151D01*
X170554856Y-121659698D01*
X170936942Y-121915000D01*
X170554856Y-122170302D01*
X170243787Y-122635849D01*
X170134554Y-123185000D01*
X170243787Y-123734151D01*
X170554856Y-124199698D01*
X170932675Y-124452149D01*
X170500024Y-124800104D01*
X170230157Y-125293181D01*
X170212620Y-125375961D01*
X170334609Y-125598000D01*
X171827524Y-125598000D01*
X171827524Y-125578000D01*
X172081524Y-125578000D01*
X172081524Y-125598000D01*
X173574439Y-125598000D01*
X173696428Y-125375961D01*
X173678891Y-125293181D01*
X173409024Y-124800104D01*
X173351313Y-124753690D01*
X184325000Y-124753690D01*
X184325000Y-125444250D01*
X184483750Y-125603000D01*
X185833000Y-125603000D01*
X185833000Y-124403750D01*
X186087000Y-124403750D01*
X186087000Y-125603000D01*
X187436250Y-125603000D01*
X187595000Y-125444250D01*
X187595000Y-124880000D01*
X188312560Y-124880000D01*
X188312560Y-126580000D01*
X188356838Y-126815317D01*
X188495910Y-127031441D01*
X188708110Y-127176431D01*
X188960000Y-127227440D01*
X190960000Y-127227440D01*
X191195317Y-127183162D01*
X191411441Y-127044090D01*
X191556431Y-126831890D01*
X191607440Y-126580000D01*
X191607440Y-125157362D01*
X196767401Y-119997401D01*
X196932148Y-119750839D01*
X196990000Y-119460000D01*
X196990000Y-119267531D01*
X197020303Y-119255010D01*
X197413629Y-118862370D01*
X197626757Y-118349100D01*
X197627242Y-117793339D01*
X197415010Y-117279697D01*
X197022370Y-116886371D01*
X196509100Y-116673243D01*
X195953339Y-116672758D01*
X195439697Y-116884990D01*
X195046371Y-117277630D01*
X194833243Y-117790900D01*
X194832758Y-118346661D01*
X195044990Y-118860303D01*
X195399633Y-119215565D01*
X190382638Y-124232560D01*
X188960000Y-124232560D01*
X188724683Y-124276838D01*
X188508559Y-124415910D01*
X188363569Y-124628110D01*
X188312560Y-124880000D01*
X187595000Y-124880000D01*
X187595000Y-124753690D01*
X187498327Y-124520301D01*
X187319698Y-124341673D01*
X187086309Y-124245000D01*
X186245750Y-124245000D01*
X186087000Y-124403750D01*
X185833000Y-124403750D01*
X185674250Y-124245000D01*
X184833691Y-124245000D01*
X184600302Y-124341673D01*
X184421673Y-124520301D01*
X184325000Y-124753690D01*
X173351313Y-124753690D01*
X172976373Y-124452149D01*
X173354192Y-124199698D01*
X173665261Y-123734151D01*
X173768210Y-123216592D01*
X174049052Y-122935750D01*
X176315000Y-122935750D01*
X176315000Y-123776309D01*
X176411673Y-124009698D01*
X176590301Y-124188327D01*
X176823690Y-124285000D01*
X177514250Y-124285000D01*
X177673000Y-124126250D01*
X177673000Y-122777000D01*
X177927000Y-122777000D01*
X177927000Y-124126250D01*
X178085750Y-124285000D01*
X178776310Y-124285000D01*
X179009699Y-124188327D01*
X179188327Y-124009698D01*
X179285000Y-123776309D01*
X179285000Y-122935750D01*
X179126250Y-122777000D01*
X177927000Y-122777000D01*
X177673000Y-122777000D01*
X176473750Y-122777000D01*
X176315000Y-122935750D01*
X174049052Y-122935750D01*
X175574802Y-121410000D01*
X176362092Y-121410000D01*
X176315000Y-121523691D01*
X176315000Y-122364250D01*
X176473750Y-122523000D01*
X177673000Y-122523000D01*
X177673000Y-122503000D01*
X177927000Y-122503000D01*
X177927000Y-122523000D01*
X179126250Y-122523000D01*
X179285000Y-122364250D01*
X179285000Y-121523691D01*
X179231216Y-121393845D01*
X179440839Y-121352148D01*
X179687401Y-121187401D01*
X181420619Y-119454183D01*
X181450900Y-119466757D01*
X182006661Y-119467242D01*
X182520303Y-119255010D01*
X182913629Y-118862370D01*
X182972746Y-118720000D01*
X187332560Y-118720000D01*
X187332560Y-121220000D01*
X187376838Y-121455317D01*
X187515910Y-121671441D01*
X187728110Y-121816431D01*
X187980000Y-121867440D01*
X190480000Y-121867440D01*
X190715317Y-121823162D01*
X190931441Y-121684090D01*
X191076431Y-121471890D01*
X191127440Y-121220000D01*
X191127440Y-118720000D01*
X191083162Y-118484683D01*
X190944090Y-118268559D01*
X190731890Y-118123569D01*
X190480000Y-118072560D01*
X187980000Y-118072560D01*
X187744683Y-118116838D01*
X187528559Y-118255910D01*
X187383569Y-118468110D01*
X187332560Y-118720000D01*
X182972746Y-118720000D01*
X183126757Y-118349100D01*
X183127242Y-117793339D01*
X182915010Y-117279697D01*
X182522370Y-116886371D01*
X182362772Y-116820100D01*
X182520303Y-116755010D01*
X182913629Y-116362370D01*
X183126757Y-115849100D01*
X183127242Y-115293339D01*
X182915010Y-114779697D01*
X182522370Y-114386371D01*
X182362772Y-114320100D01*
X182520303Y-114255010D01*
X182913629Y-113862370D01*
X183126757Y-113349100D01*
X183127242Y-112793339D01*
X182915010Y-112279697D01*
X182522370Y-111886371D01*
X182009100Y-111673243D01*
X181453339Y-111672758D01*
X180939697Y-111884990D01*
X180546371Y-112277630D01*
X180532930Y-112310000D01*
X179529524Y-112310000D01*
X179238685Y-112367852D01*
X178992123Y-112532599D01*
X173715634Y-117809088D01*
X173665261Y-117555849D01*
X173354192Y-117090302D01*
X172972106Y-116835000D01*
X173354192Y-116579698D01*
X173665261Y-116114151D01*
X173774494Y-115565000D01*
X173665261Y-115015849D01*
X173354192Y-114550302D01*
X172972106Y-114295000D01*
X173354192Y-114039698D01*
X173665261Y-113574151D01*
X173774494Y-113025000D01*
X173665261Y-112475849D01*
X173354192Y-112010302D01*
X172972106Y-111755000D01*
X173354192Y-111499698D01*
X173665261Y-111034151D01*
X173774494Y-110485000D01*
X173674043Y-109980000D01*
X187332560Y-109980000D01*
X187332560Y-112420000D01*
X187376838Y-112655317D01*
X187515910Y-112871441D01*
X187728110Y-113016431D01*
X187980000Y-113067440D01*
X190480000Y-113067440D01*
X190715317Y-113023162D01*
X190931441Y-112884090D01*
X191076431Y-112671890D01*
X191127440Y-112420000D01*
X191127440Y-109980000D01*
X195265198Y-109980000D01*
X195470000Y-110184802D01*
X195470000Y-111872469D01*
X195439697Y-111884990D01*
X195046371Y-112277630D01*
X194833243Y-112790900D01*
X194832758Y-113346661D01*
X195044990Y-113860303D01*
X195437630Y-114253629D01*
X195950900Y-114466757D01*
X196506661Y-114467242D01*
X197020303Y-114255010D01*
X197413629Y-113862370D01*
X197626757Y-113349100D01*
X197627242Y-112793339D01*
X197415010Y-112279697D01*
X197022370Y-111886371D01*
X196990000Y-111872930D01*
X196990000Y-109870000D01*
X196932148Y-109579161D01*
X196767401Y-109332599D01*
X196117401Y-108682599D01*
X195870839Y-108517852D01*
X195580000Y-108460000D01*
X173219524Y-108460000D01*
X172928685Y-108517852D01*
X172682123Y-108682599D01*
X172314722Y-109050000D01*
X171569554Y-109050000D01*
X171020403Y-109159233D01*
X170554856Y-109470302D01*
X170243787Y-109935849D01*
X170134554Y-110485000D01*
X158534494Y-110485000D01*
X158425261Y-109935849D01*
X158390500Y-109883826D01*
X160557401Y-107716925D01*
X160722148Y-107470363D01*
X160728188Y-107440000D01*
X197805198Y-107440000D01*
X198090000Y-107724802D01*
X198090000Y-107724802D01*
G37*
X198090000Y-107724802D02*
X198090000Y-128042560D01*
X197850000Y-128042560D01*
X197614683Y-128086838D01*
X197610000Y-128089851D01*
X197610000Y-127000000D01*
X197552148Y-126709161D01*
X197387401Y-126462599D01*
X197140839Y-126297852D01*
X196850000Y-126240000D01*
X193040000Y-126240000D01*
X192749160Y-126297852D01*
X192502599Y-126462599D01*
X191232599Y-127732599D01*
X191067852Y-127979161D01*
X191010000Y-128270000D01*
X191010000Y-134378960D01*
X190906400Y-134378960D01*
X190671083Y-134423238D01*
X190454959Y-134562310D01*
X190309969Y-134774510D01*
X190301092Y-134818345D01*
X189832848Y-134505474D01*
X189259359Y-134391400D01*
X189200641Y-134391400D01*
X188627152Y-134505474D01*
X188140971Y-134830330D01*
X187960000Y-135101172D01*
X187779029Y-134830330D01*
X187292848Y-134505474D01*
X186719359Y-134391400D01*
X186660641Y-134391400D01*
X186331644Y-134456842D01*
X182147401Y-130272599D01*
X181900839Y-130107852D01*
X181610000Y-130050000D01*
X173527717Y-130050000D01*
X173354192Y-129790302D01*
X172972106Y-129535000D01*
X173354192Y-129279698D01*
X173665261Y-128814151D01*
X173774494Y-128265000D01*
X173665261Y-127715849D01*
X173354192Y-127250302D01*
X172976373Y-126997851D01*
X173409024Y-126649896D01*
X173678891Y-126156819D01*
X173696428Y-126074039D01*
X173664404Y-126015750D01*
X184325000Y-126015750D01*
X184325000Y-126706310D01*
X184421673Y-126939699D01*
X184600302Y-127118327D01*
X184833691Y-127215000D01*
X185674250Y-127215000D01*
X185833000Y-127056250D01*
X185833000Y-125857000D01*
X186087000Y-125857000D01*
X186087000Y-127056250D01*
X186245750Y-127215000D01*
X187086309Y-127215000D01*
X187319698Y-127118327D01*
X187498327Y-126939699D01*
X187595000Y-126706310D01*
X187595000Y-126015750D01*
X187436250Y-125857000D01*
X186087000Y-125857000D01*
X185833000Y-125857000D01*
X184483750Y-125857000D01*
X184325000Y-126015750D01*
X173664404Y-126015750D01*
X173574439Y-125852000D01*
X172081524Y-125852000D01*
X172081524Y-125872000D01*
X171827524Y-125872000D01*
X171827524Y-125852000D01*
X170334609Y-125852000D01*
X170212620Y-126074039D01*
X170230157Y-126156819D01*
X170500024Y-126649896D01*
X170932675Y-126997851D01*
X170554856Y-127250302D01*
X170381331Y-127510000D01*
X167954802Y-127510000D01*
X165632401Y-125187599D01*
X165385839Y-125022852D01*
X165095000Y-124965000D01*
X165018578Y-124965000D01*
X165064440Y-124854279D01*
X165064440Y-123714510D01*
X164905690Y-123555760D01*
X163957000Y-123555760D01*
X163957000Y-123575760D01*
X163703000Y-123575760D01*
X163703000Y-123555760D01*
X162754310Y-123555760D01*
X162595560Y-123714510D01*
X162595560Y-124854279D01*
X162641422Y-124965000D01*
X158284376Y-124965000D01*
X158114192Y-124710302D01*
X157732106Y-124455000D01*
X158114192Y-124199698D01*
X158425261Y-123734151D01*
X158534494Y-123185000D01*
X158425261Y-122635849D01*
X158114192Y-122170302D01*
X157864168Y-122003241D01*
X162595560Y-122003241D01*
X162595560Y-123143010D01*
X162754310Y-123301760D01*
X163703000Y-123301760D01*
X163703000Y-121653300D01*
X163957000Y-121653300D01*
X163957000Y-123301760D01*
X164905690Y-123301760D01*
X165064440Y-123143010D01*
X165064440Y-122003241D01*
X164967767Y-121769852D01*
X164789139Y-121591223D01*
X164555750Y-121494550D01*
X164115750Y-121494550D01*
X163957000Y-121653300D01*
X163703000Y-121653300D01*
X163544250Y-121494550D01*
X163104250Y-121494550D01*
X162870861Y-121591223D01*
X162692233Y-121769852D01*
X162595560Y-122003241D01*
X157864168Y-122003241D01*
X157732106Y-121915000D01*
X158114192Y-121659698D01*
X158425261Y-121194151D01*
X158534494Y-120645000D01*
X158425261Y-120095849D01*
X158114192Y-119630302D01*
X157732106Y-119375000D01*
X158114192Y-119119698D01*
X158425261Y-118654151D01*
X158534494Y-118105000D01*
X158425261Y-117555849D01*
X158114192Y-117090302D01*
X157732106Y-116835000D01*
X158114192Y-116579698D01*
X158425261Y-116114151D01*
X158534494Y-115565000D01*
X158425261Y-115015849D01*
X158114192Y-114550302D01*
X157732106Y-114295000D01*
X158114192Y-114039698D01*
X158425261Y-113574151D01*
X158534494Y-113025000D01*
X158425261Y-112475849D01*
X158114192Y-112010302D01*
X157732106Y-111755000D01*
X158114192Y-111499698D01*
X158425261Y-111034151D01*
X158534494Y-110485000D01*
X170134554Y-110485000D01*
X170243787Y-111034151D01*
X170554856Y-111499698D01*
X170936942Y-111755000D01*
X170554856Y-112010302D01*
X170243787Y-112475849D01*
X170134554Y-113025000D01*
X170243787Y-113574151D01*
X170554856Y-114039698D01*
X170936942Y-114295000D01*
X170554856Y-114550302D01*
X170243787Y-115015849D01*
X170134554Y-115565000D01*
X170243787Y-116114151D01*
X170554856Y-116579698D01*
X170936942Y-116835000D01*
X170554856Y-117090302D01*
X170243787Y-117555849D01*
X170134554Y-118105000D01*
X170243787Y-118654151D01*
X170554856Y-119119698D01*
X170936942Y-119375000D01*
X170554856Y-119630302D01*
X170243787Y-120095849D01*
X170134554Y-120645000D01*
X170243787Y-121194151D01*
X170554856Y-121659698D01*
X170936942Y-121915000D01*
X170554856Y-122170302D01*
X170243787Y-122635849D01*
X170134554Y-123185000D01*
X170243787Y-123734151D01*
X170554856Y-124199698D01*
X170932675Y-124452149D01*
X170500024Y-124800104D01*
X170230157Y-125293181D01*
X170212620Y-125375961D01*
X170334609Y-125598000D01*
X171827524Y-125598000D01*
X171827524Y-125578000D01*
X172081524Y-125578000D01*
X172081524Y-125598000D01*
X173574439Y-125598000D01*
X173696428Y-125375961D01*
X173678891Y-125293181D01*
X173409024Y-124800104D01*
X173351313Y-124753690D01*
X184325000Y-124753690D01*
X184325000Y-125444250D01*
X184483750Y-125603000D01*
X185833000Y-125603000D01*
X185833000Y-124403750D01*
X186087000Y-124403750D01*
X186087000Y-125603000D01*
X187436250Y-125603000D01*
X187595000Y-125444250D01*
X187595000Y-124880000D01*
X188312560Y-124880000D01*
X188312560Y-126580000D01*
X188356838Y-126815317D01*
X188495910Y-127031441D01*
X188708110Y-127176431D01*
X188960000Y-127227440D01*
X190960000Y-127227440D01*
X191195317Y-127183162D01*
X191411441Y-127044090D01*
X191556431Y-126831890D01*
X191607440Y-126580000D01*
X191607440Y-125157362D01*
X196767401Y-119997401D01*
X196932148Y-119750839D01*
X196990000Y-119460000D01*
X196990000Y-119267531D01*
X197020303Y-119255010D01*
X197413629Y-118862370D01*
X197626757Y-118349100D01*
X197627242Y-117793339D01*
X197415010Y-117279697D01*
X197022370Y-116886371D01*
X196509100Y-116673243D01*
X195953339Y-116672758D01*
X195439697Y-116884990D01*
X195046371Y-117277630D01*
X194833243Y-117790900D01*
X194832758Y-118346661D01*
X195044990Y-118860303D01*
X195399633Y-119215565D01*
X190382638Y-124232560D01*
X188960000Y-124232560D01*
X188724683Y-124276838D01*
X188508559Y-124415910D01*
X188363569Y-124628110D01*
X188312560Y-124880000D01*
X187595000Y-124880000D01*
X187595000Y-124753690D01*
X187498327Y-124520301D01*
X187319698Y-124341673D01*
X187086309Y-124245000D01*
X186245750Y-124245000D01*
X186087000Y-124403750D01*
X185833000Y-124403750D01*
X185674250Y-124245000D01*
X184833691Y-124245000D01*
X184600302Y-124341673D01*
X184421673Y-124520301D01*
X184325000Y-124753690D01*
X173351313Y-124753690D01*
X172976373Y-124452149D01*
X173354192Y-124199698D01*
X173665261Y-123734151D01*
X173768210Y-123216592D01*
X174049052Y-122935750D01*
X176315000Y-122935750D01*
X176315000Y-123776309D01*
X176411673Y-124009698D01*
X176590301Y-124188327D01*
X176823690Y-124285000D01*
X177514250Y-124285000D01*
X177673000Y-124126250D01*
X177673000Y-122777000D01*
X177927000Y-122777000D01*
X177927000Y-124126250D01*
X178085750Y-124285000D01*
X178776310Y-124285000D01*
X179009699Y-124188327D01*
X179188327Y-124009698D01*
X179285000Y-123776309D01*
X179285000Y-122935750D01*
X179126250Y-122777000D01*
X177927000Y-122777000D01*
X177673000Y-122777000D01*
X176473750Y-122777000D01*
X176315000Y-122935750D01*
X174049052Y-122935750D01*
X175574802Y-121410000D01*
X176362092Y-121410000D01*
X176315000Y-121523691D01*
X176315000Y-122364250D01*
X176473750Y-122523000D01*
X177673000Y-122523000D01*
X177673000Y-122503000D01*
X177927000Y-122503000D01*
X177927000Y-122523000D01*
X179126250Y-122523000D01*
X179285000Y-122364250D01*
X179285000Y-121523691D01*
X179231216Y-121393845D01*
X179440839Y-121352148D01*
X179687401Y-121187401D01*
X181420619Y-119454183D01*
X181450900Y-119466757D01*
X182006661Y-119467242D01*
X182520303Y-119255010D01*
X182913629Y-118862370D01*
X182972746Y-118720000D01*
X187332560Y-118720000D01*
X187332560Y-121220000D01*
X187376838Y-121455317D01*
X187515910Y-121671441D01*
X187728110Y-121816431D01*
X187980000Y-121867440D01*
X190480000Y-121867440D01*
X190715317Y-121823162D01*
X190931441Y-121684090D01*
X191076431Y-121471890D01*
X191127440Y-121220000D01*
X191127440Y-118720000D01*
X191083162Y-118484683D01*
X190944090Y-118268559D01*
X190731890Y-118123569D01*
X190480000Y-118072560D01*
X187980000Y-118072560D01*
X187744683Y-118116838D01*
X187528559Y-118255910D01*
X187383569Y-118468110D01*
X187332560Y-118720000D01*
X182972746Y-118720000D01*
X183126757Y-118349100D01*
X183127242Y-117793339D01*
X182915010Y-117279697D01*
X182522370Y-116886371D01*
X182362772Y-116820100D01*
X182520303Y-116755010D01*
X182913629Y-116362370D01*
X183126757Y-115849100D01*
X183127242Y-115293339D01*
X182915010Y-114779697D01*
X182522370Y-114386371D01*
X182362772Y-114320100D01*
X182520303Y-114255010D01*
X182913629Y-113862370D01*
X183126757Y-113349100D01*
X183127242Y-112793339D01*
X182915010Y-112279697D01*
X182522370Y-111886371D01*
X182009100Y-111673243D01*
X181453339Y-111672758D01*
X180939697Y-111884990D01*
X180546371Y-112277630D01*
X180532930Y-112310000D01*
X179529524Y-112310000D01*
X179238685Y-112367852D01*
X178992123Y-112532599D01*
X173715634Y-117809088D01*
X173665261Y-117555849D01*
X173354192Y-117090302D01*
X172972106Y-116835000D01*
X173354192Y-116579698D01*
X173665261Y-116114151D01*
X173774494Y-115565000D01*
X173665261Y-115015849D01*
X173354192Y-114550302D01*
X172972106Y-114295000D01*
X173354192Y-114039698D01*
X173665261Y-113574151D01*
X173774494Y-113025000D01*
X173665261Y-112475849D01*
X173354192Y-112010302D01*
X172972106Y-111755000D01*
X173354192Y-111499698D01*
X173665261Y-111034151D01*
X173774494Y-110485000D01*
X173674043Y-109980000D01*
X187332560Y-109980000D01*
X187332560Y-112420000D01*
X187376838Y-112655317D01*
X187515910Y-112871441D01*
X187728110Y-113016431D01*
X187980000Y-113067440D01*
X190480000Y-113067440D01*
X190715317Y-113023162D01*
X190931441Y-112884090D01*
X191076431Y-112671890D01*
X191127440Y-112420000D01*
X191127440Y-109980000D01*
X195265198Y-109980000D01*
X195470000Y-110184802D01*
X195470000Y-111872469D01*
X195439697Y-111884990D01*
X195046371Y-112277630D01*
X194833243Y-112790900D01*
X194832758Y-113346661D01*
X195044990Y-113860303D01*
X195437630Y-114253629D01*
X195950900Y-114466757D01*
X196506661Y-114467242D01*
X197020303Y-114255010D01*
X197413629Y-113862370D01*
X197626757Y-113349100D01*
X197627242Y-112793339D01*
X197415010Y-112279697D01*
X197022370Y-111886371D01*
X196990000Y-111872930D01*
X196990000Y-109870000D01*
X196932148Y-109579161D01*
X196767401Y-109332599D01*
X196117401Y-108682599D01*
X195870839Y-108517852D01*
X195580000Y-108460000D01*
X173219524Y-108460000D01*
X172928685Y-108517852D01*
X172682123Y-108682599D01*
X172314722Y-109050000D01*
X171569554Y-109050000D01*
X171020403Y-109159233D01*
X170554856Y-109470302D01*
X170243787Y-109935849D01*
X170134554Y-110485000D01*
X158534494Y-110485000D01*
X158425261Y-109935849D01*
X158390500Y-109883826D01*
X160557401Y-107716925D01*
X160722148Y-107470363D01*
X160728188Y-107440000D01*
X197805198Y-107440000D01*
X198090000Y-107724802D01*
M02*
