M48
INCH,TZ
T1C0.030
T2C0.031
T3C0.039
T4C0.040
T5C0.041
T6C0.079
%
G90
G05
T1
X55134Y-52504
X55134Y-53004
X55134Y-53504
X55134Y-54004
X71547Y-44516
X71547Y-45500
X71547Y-46484
X77256Y-44516
X77256Y-46484
T2
X61699Y-43498
X61699Y-44498
X61699Y-45498
X61699Y-46498
X61699Y-47498
X61699Y-48498
X61699Y-49498
X61699Y-50498
X61699Y-51498
X61699Y-52498
X61699Y-53498
X61699Y-54498
X61699Y-55498
X61699Y-56498
X67699Y-43498
X67699Y-44498
X67699Y-45498
X67699Y-46498
X67699Y-47498
X67699Y-48498
X67699Y-49498
X67699Y-50498
X67699Y-51498
X67699Y-52498
X67699Y-53498
X67699Y-54498
X67699Y-55498
X67699Y-56498
T3
X56000Y-43500
X56000Y-44500
T4
X71500Y-53500
X71500Y-54500
X72500Y-53500
X72500Y-54500
X73500Y-53500
X73500Y-54500
X74500Y-53500
X74500Y-54500
X75500Y-53500
X75500Y-54500
T5
X53484Y-43500
X53484Y-45500
T6
X74500Y-43768
X74500Y-47232
T0
M30
