G04 #@! TF.FileFunction,Copper,L1,Top,Signal*
%FSLAX46Y46*%
G04 Gerber Fmt 4.6, Leading zero omitted, Abs format (unit mm)*
G04 Created by KiCad (PCBNEW (2015-08-13 BZR 6091)-product) date Tuesday, February 23, 2016 'AMt' 08:26:50 AM*
%MOMM*%
G01*
G04 APERTURE LIST*
%ADD10C,0.100000*%
%ADD11R,1.727200X1.727200*%
%ADD12O,1.727200X1.727200*%
%ADD13R,2.000000X2.000000*%
%ADD14C,2.000000*%
%ADD15C,1.800000*%
%ADD16R,2.500000X2.500000*%
%ADD17O,2.300000X1.600000*%
%ADD18O,1.905000X1.117600*%
%ADD19R,1.905000X1.117600*%
%ADD20C,0.250000*%
G04 APERTURE END LIST*
D10*
D11*
X108240000Y-139330000D03*
D12*
X105700000Y-139330000D03*
X108240000Y-136790000D03*
X105700000Y-136790000D03*
X108240000Y-134250000D03*
X105700000Y-134250000D03*
X108240000Y-131710000D03*
X105700000Y-131710000D03*
X108240000Y-129170000D03*
X105700000Y-129170000D03*
D13*
X84650000Y-113080000D03*
D14*
X84650000Y-110540000D03*
D15*
X124490000Y-115270000D03*
X124490000Y-110270000D03*
X109990000Y-112770000D03*
X109990000Y-115270000D03*
X109990000Y-110270000D03*
D16*
X117490000Y-117170000D03*
X117490000Y-108370000D03*
D14*
X77390000Y-103160000D03*
X82470000Y-103160000D03*
D17*
X90500000Y-110710000D03*
X90500000Y-113250000D03*
X90500000Y-115790000D03*
X90500000Y-118330000D03*
X90500000Y-120870000D03*
X90500000Y-123410000D03*
X90500000Y-125950000D03*
X90500000Y-128490000D03*
X90500000Y-131030000D03*
X90500000Y-133570000D03*
X90500000Y-136110000D03*
X90500000Y-138650000D03*
X90500000Y-141190000D03*
X90500000Y-143730000D03*
X98120000Y-143730000D03*
X98120000Y-141190000D03*
X98120000Y-138650000D03*
X98120000Y-136110000D03*
X98120000Y-133570000D03*
X98120000Y-131030000D03*
X98120000Y-128490000D03*
X98120000Y-125950000D03*
X98120000Y-123410000D03*
X98120000Y-120870000D03*
X98120000Y-118330000D03*
X98120000Y-115790000D03*
X98120000Y-113250000D03*
X98120000Y-110710000D03*
D18*
X82430000Y-125770000D03*
D19*
X82430000Y-127870000D03*
D18*
X82430000Y-129970000D03*
X82430000Y-132070000D03*
D14*
X124530000Y-130070000D03*
X124530000Y-135150000D03*
X124700000Y-140400000D03*
X124700000Y-145480000D03*
D20*
X82430000Y-135550000D02*
X82200000Y-135780000D01*
M02*
